<svg width="195" height="33" viewBox="0 0 195 33" fill="none" xmlns="http://www.w3.org/2000/svg">
<path d="M131.741 32.3256C123.327 32.5482 115.181 26.0631 115.16 16.5822C115.14 7.25626 122.952 0.722742 131.67 0.698544C141.143 0.669506 148.449 7.83217 148.378 16.6403C148.297 26.4309 139.827 32.5821 131.741 32.3256ZM141.386 16.5387C141.751 10.6682 135.933 7.06267 131.696 7.12075C126.997 7.18366 122.102 11.0893 122.071 16.4225C122.036 21.9107 127.008 25.8598 131.559 25.8114C137.265 25.7582 141.68 21.4558 141.386 16.5387Z" fill="white"/>
<path d="M44.726 1.25991C48.7003 1.26959 52.543 0.84854 56.3604 1.78259C61.8941 3.13769 64.542 9.62281 61.2562 13.6446C61.1094 13.8236 61.0233 14.0511 60.8309 14.3995C61.2765 14.6464 61.6815 14.8932 62.1017 15.1061C65.3875 16.7613 66.7545 19.6167 66.6431 22.898C66.5317 26.1695 64.9622 29.0056 61.722 30.5543C60.3955 31.1883 58.8716 31.6964 57.4084 31.7593C53.5354 31.9239 49.6521 31.8126 45.7689 31.7981C45.45 31.7981 45.131 31.6771 44.8576 31.619C44.3868 29.8186 44.245 4.73961 44.726 1.25991ZM51.3482 25.3517C53.3936 25.3517 55.1605 25.463 56.9072 25.3226C58.6741 25.1823 60.0664 23.6481 60.112 22.1091C60.1525 20.6427 58.9324 19.065 57.2717 18.881C55.3124 18.6681 53.3075 18.5229 51.3482 19.0069C51.3482 21.1218 51.3482 23.1109 51.3482 25.3517ZM51.3988 7.70631C51.3988 9.53086 51.3988 11.0989 51.3988 12.7444C52.7202 12.7444 53.8695 12.7444 54.8314 12.7444C56.3706 11.7232 56.3098 10.4746 55.9554 8.98882C55.7377 8.28223 55.1555 7.84666 54.4619 7.70631C53.4138 7.70631 52.4975 7.70631 51.3988 7.70631Z" fill="white"/>
<path d="M6.66356 15.1933V31.619C4.49666 31.9917 2.50189 31.7545 0.248925 31.8029C-0.181418 29.1702 0.0869136 26.61 0.041348 24.074C-0.00421774 21.4945 0.0312222 18.915 0.0312222 16.3354C0.0312222 13.7559 0.0261594 11.1764 0.0312222 8.59684C0.041348 6.05603 -0.0143434 3.51522 0.0767879 0.984088C0.324868 0.887295 0.355245 0.877616 0.603325 0.780823C6.5623 6.31253 12.5213 11.8394 18.8397 17.7051V1.45837C21.1535 0.916333 23.2039 1.21639 25.4113 1.22607V30.7963C25.4113 31.4351 24.6114 31.7594 24.1253 31.319C21.2496 28.7007 18.6018 26.3051 15.9792 23.8804C13.0124 21.146 10.0759 18.3826 6.66356 15.1933Z" fill="white"/>
<path d="M165.951 19.8296C168.811 23.6917 171.611 27.4763 174.543 31.4399C173.115 32.04 171.859 31.769 170.659 31.8126C169.404 31.8561 168.143 31.8223 166.66 31.8223C163.541 27.394 160.407 22.9415 157.278 18.4939C157.152 18.5181 157.025 18.5471 156.894 18.5713C156.894 22.8399 156.894 27.1036 156.894 31.4351C154.63 32.1514 152.565 31.6867 150.271 31.8077C149.887 29.175 150.114 26.6971 150.074 24.2385C150.033 21.6638 150.064 19.0843 150.064 16.5096C150.064 14.0124 150.064 11.52 150.064 9.0227C150.064 6.5448 150.064 4.06691 150.064 1.52126C150.702 1.38575 151.091 1.22604 151.486 1.22604C154.433 1.20668 157.385 1.11957 160.331 1.23572C163.728 1.37123 166.741 2.47467 169.044 4.99612C172.912 9.22113 172.229 15.353 167.49 18.8375C167.039 19.1763 166.538 19.457 165.951 19.8296ZM156.934 14.7577C158.139 14.7577 159.055 14.7625 159.972 14.7577C163.136 14.7286 163.992 14.0317 164.619 10.9586C163.227 7.86119 161.602 7.203 156.934 7.90474C156.934 10.0777 156.934 12.2701 156.934 14.7577Z" fill="white"/>
<path d="M194.83 1.48255C194.83 3.50068 194.83 5.39298 194.83 7.52727C190.855 7.52727 187.013 7.52727 182.972 7.52727C182.972 9.47764 182.972 11.1957 182.972 13.2284C186.359 13.2284 189.762 13.2284 193.306 13.2284C193.306 15.4352 193.306 17.3324 193.306 19.4957C189.908 19.9506 186.466 19.4376 182.932 19.8006C182.932 21.6251 182.932 23.3481 182.932 25.3081C186.856 25.3081 190.698 25.3081 194.612 25.3081C195.24 27.4811 194.941 29.4508 194.85 31.6964C188.668 31.982 182.567 31.7448 176.649 31.8368C176.401 31.5851 176.34 31.5271 176.289 31.4641C176.239 31.4012 176.173 31.3383 176.163 31.2657C176.107 30.8689 176.026 30.472 176.026 30.0703C176.026 20.8072 176.036 11.5442 176.051 2.28109C176.051 2.05363 176.173 1.82133 176.229 1.60838C178.011 1.11474 191.564 0.99375 194.83 1.48255Z" fill="white"/>
<path d="M45.2829 21.0396C43.6173 17.6083 41.9567 14.1769 40.2201 10.7844C38.5139 7.45468 37.2077 3.92658 35.0408 0.650146C34.651 1.07603 34.4383 1.22606 34.3371 1.42933C30.2361 9.87934 26.1504 18.3342 22.0647 26.7939L24.5404 31.711H26.7934C27.5225 30.3123 28.2566 28.9088 28.9401 27.5973L31.6082 21.9204C32.7423 19.5344 33.7953 17.2985 35.0408 14.6706C36.2559 17.2985 37.2786 19.5151 38.3873 21.9204L41.0352 27.5973C41.8098 29.0104 42.5439 30.3462 43.2882 31.7013H50.3964C48.5637 27.878 46.9385 24.4515 45.2829 21.0396Z" fill="white"/>
<path d="M71.3162 26.4019C73.2451 25.1048 74.8754 24.0159 76.698 22.7915C78.5712 25.1194 80.9508 26.0389 83.8366 25.8405C85.1732 25.7485 86.287 25.3517 87.2034 24.1902C87.2034 23.6675 87.2034 23.0432 87.2034 22.4527C87.0262 22.2011 86.93 21.9446 86.7376 21.8139C85.2441 20.783 83.7809 19.699 82.2165 18.7746C80.5711 17.8018 78.8193 17.0033 77.1283 16.108C71.8629 13.3155 71.3617 6.13829 77.3511 2.33433C81.2596 -0.148408 87.249 0.161329 90.8638 2.978C91.9321 3.81042 92.7472 4.79771 92.9649 6.35607C91.5119 7.36272 90.0285 8.38872 88.3881 9.51636C86.7326 7.35788 84.5505 6.59321 81.9583 7.27076C80.6369 7.61438 79.8471 8.54359 79.8521 9.94225C80.328 10.9924 81.2292 11.4909 82.2519 11.9555C84.4543 12.9573 86.6364 14.0221 88.7526 15.1787C89.8361 15.7692 90.8638 16.529 91.7498 17.3711C95.7596 21.1702 94.9698 27.2101 90.3981 30.3897C86.5351 33.0757 77.0726 33.3564 73.3464 28.9669C72.7287 28.2216 72.1465 27.4472 71.3162 26.4019Z" fill="white"/>
<path d="M102.053 7.65797C99.4403 7.65797 97.1165 7.65797 94.7116 7.65797C94.1952 5.48497 94.3268 3.52975 94.5597 1.60357C96.4532 1.12445 112.766 0.9841 116.573 1.41483C116.932 3.30713 116.821 5.26234 116.603 7.52246C114.072 7.52246 111.601 7.52246 108.877 7.52246C108.877 15.6676 108.877 23.5223 108.877 31.5029C106.609 32.0885 104.549 31.7158 102.225 31.7981C102.164 30.7673 102.068 29.9155 102.063 29.0589C102.048 22.8593 102.058 16.6645 102.058 10.465C102.053 9.60834 102.053 8.74689 102.053 7.65797Z" fill="white"/>
</svg>
